<svg width="16" height="16" viewBox="0 0 16 16" fill="none" xmlns="http://www.w3.org/2000/svg">
<path d="M1.63556 5.29303C1.82309 5.10556 2.0774 5.00024 2.34256 5.00024C2.60772 5.00024 2.86203 5.10556 3.04956 5.29303L7.99956 10.243L12.9496 5.29303C13.1382 5.11087 13.3908 5.01008 13.653 5.01236C13.9152 5.01463 14.166 5.1198 14.3514 5.30521C14.5368 5.49062 14.642 5.74143 14.6442 6.00363C14.6465 6.26583 14.5457 6.51843 14.3636 6.70703L8.70656 12.364C8.51903 12.5515 8.26472 12.6568 7.99956 12.6568C7.7344 12.6568 7.48009 12.5515 7.29256 12.364L1.63556 6.70703C1.44809 6.5195 1.34277 6.26519 1.34277 6.00003C1.34277 5.73487 1.44809 5.48056 1.63556 5.29303Z" fill="white"/>
</svg>
