<svg width="28" height="28" viewBox="0 0 28 28" fill="none" xmlns="http://www.w3.org/2000/svg">
<path d="M25.6665 6.76682C24.7896 7.14725 23.8622 7.39875 22.9132 7.51348C23.9145 6.91535 24.6647 5.9744 25.0249 4.86517C24.0841 5.42523 23.0542 5.81983 21.9799 6.03182C21.2618 5.25316 20.3058 4.73484 19.2614 4.55816C18.2171 4.38147 17.1435 4.55641 16.2094 5.05554C15.2751 5.55468 14.533 6.34977 14.0994 7.31611C13.6657 8.28247 13.5652 9.36541 13.8133 10.3951C11.911 10.2989 10.0502 9.80356 8.35179 8.9413C6.65339 8.07904 5.15538 6.86912 3.95507 5.39016C3.53407 6.12534 3.31285 6.95794 3.31341 7.80514C3.31191 8.59191 3.505 9.36684 3.87546 10.0609C4.2459 10.755 4.78225 11.3468 5.43672 11.7835C4.67604 11.7627 3.93161 11.5586 3.26674 11.1884V11.2468C3.27245 12.3492 3.65873 13.4157 4.36026 14.266C5.06181 15.1164 6.03552 15.6983 7.11671 15.9134C6.70051 16.04 6.2684 16.1069 5.83339 16.1118C5.53226 16.1083 5.23188 16.0809 4.93506 16.0301C5.24295 16.9784 5.83878 17.807 6.63963 18.4009C7.44049 18.9947 8.40654 19.3242 9.40335 19.3434C7.7201 20.6678 5.64191 21.3907 3.50007 21.3967C3.11011 21.398 2.72044 21.3746 2.33342 21.3267C4.52023 22.7386 7.06865 23.4882 9.67168 23.485C11.468 23.5037 13.2499 23.1642 14.9136 22.4864C16.5772 21.8087 18.0891 20.8062 19.361 19.5377C20.6329 18.269 21.6392 16.7597 22.3213 15.0978C23.0033 13.4359 23.3472 11.6548 23.3332 9.85846C23.3332 9.66011 23.3332 9.45013 23.3332 9.24013C24.2487 8.55741 25.0383 7.72046 25.6665 6.76682Z" fill="#FF012A"/>
</svg>
