<svg width="28" height="28" viewBox="0 0 28 28" fill="none" xmlns="http://www.w3.org/2000/svg">
<path d="M18.7994 10.8393C19.4434 10.1953 20.0828 8.69264 17.3994 10.5173C14.8928 12.2425 12.3692 13.9426 9.829 15.6179C9.44218 15.7928 9.024 15.8878 8.59958 15.897C8.17515 15.9062 7.75323 15.8296 7.35919 15.6716C5.74921 15.1886 3.86972 14.5446 3.86972 14.5446C3.86972 14.5446 2.5864 13.7385 4.78321 12.8798C4.78321 12.8798 14.071 9.06832 17.2922 7.72549C18.5265 7.18883 22.7135 5.4715 22.7135 5.4715C22.7135 5.4715 24.6467 4.71902 24.4857 6.54483C24.4321 7.29616 24.0027 9.92814 23.5734 12.7725C22.9283 16.7986 22.2306 21.2015 22.2306 21.2015C22.2306 21.2015 22.1232 22.4358 21.2109 22.6506C20.2343 22.634 19.2906 22.2942 18.5276 21.6846C18.3129 21.5235 14.5014 19.1074 13.105 17.9268C12.9629 17.8305 12.8475 17.6998 12.7695 17.5471C12.6914 17.3943 12.6533 17.2242 12.6587 17.0527C12.664 16.8812 12.7127 16.7139 12.8001 16.5662C12.8875 16.4186 13.0109 16.2955 13.1587 16.2082C15.074 14.4559 16.9546 12.6659 18.7994 10.8393Z" fill="#FF012A"/>
</svg>
