<svg width="34" height="34" viewBox="0 0 34 34" fill="none" xmlns="http://www.w3.org/2000/svg">
<path d="M8.5 8.68062V22.3125C8.49979 23.6613 9.01262 24.9596 9.93446 25.9442C10.8563 26.9288 12.1181 27.5259 13.464 27.6144L13.8125 27.625H23.1922C22.9726 28.2464 22.5656 28.7844 22.0275 29.165C21.4894 29.5455 20.8466 29.7499 20.1875 29.75H12.75C11.0592 29.75 9.43774 29.0784 8.24219 27.8828C7.04665 26.6873 6.375 25.0658 6.375 23.375V11.6875C6.37465 11.0281 6.57885 10.3847 6.95943 9.84621C7.34002 9.30767 7.87827 8.90044 8.5 8.68062ZM24.4375 4.25C25.2829 4.25 26.0936 4.58583 26.6914 5.1836C27.2892 5.78137 27.625 6.59212 27.625 7.4375V22.3125C27.625 23.1579 27.2892 23.9686 26.6914 24.5664C26.0936 25.1642 25.2829 25.5 24.4375 25.5H13.8125C12.9671 25.5 12.1564 25.1642 11.5586 24.5664C10.9608 23.9686 10.625 23.1579 10.625 22.3125V7.4375C10.625 6.59212 10.9608 5.78137 11.5586 5.1836C12.1564 4.58583 12.9671 4.25 13.8125 4.25H24.4375Z" fill="#ED0137"/>
</svg>
